# Blender v2.80 (sub 75) OBJ File: ''
# www.blender.org
mtllib bunny.mtl
o bunny
v 0.100000 1.000000 0.450000
v -0.100000 0.800000 0.450000
v 0.100000 0.800000 0.450000
v -0.100000 1.000000 0.450000
v 0.300000 0.100000 0.350000
v -0.300000 -0.000000 0.350000
v 0.300000 -0.000000 0.350000
v -0.300000 0.100000 0.350000
v 0.100000 0.800000 0.350000
v -0.500000 0.500000 0.350000
v 0.200000 0.500000 0.350000
v -0.100000 0.800000 0.350000
v 0.100000 1.000000 0.350000
v -0.100000 1.000000 0.350000
v 0.200000 1.100000 0.350000
v -0.300000 1.100000 0.350000
v -0.300000 1.600000 0.350000
v -0.500000 1.600000 0.350000
v 0.000000 0.300000 0.250000
v -0.300000 0.100000 0.250000
v 0.000000 0.100000 0.250000
v -0.400000 0.100000 0.250000
v 0.100000 0.400000 0.250000
v 0.100000 0.300000 0.250000
v 0.000000 0.400000 0.250000
v 0.000000 0.500000 0.250000
v -0.400000 0.500000 0.250000
v -0.400000 0.300000 0.150000
v -0.600000 0.100000 0.150000
v -0.400000 0.100000 0.150000
v -0.600000 0.300000 0.150000
v 0.300000 0.900000 0.150000
v 0.200000 0.700000 0.150000
v 0.300000 0.700000 0.150000
v 0.200000 0.900000 0.150000
v 0.300000 0.100000 -0.050000
v -0.300000 0.000000 -0.050000
v 0.300000 0.000000 -0.050000
v 0.000000 0.100000 -0.050000
v -0.300000 0.100000 -0.050000
v 0.100000 0.400000 -0.050000
v 0.000000 0.300000 -0.050000
v 0.100000 0.300000 -0.050000
v 0.000000 0.400000 -0.050000
v -0.300000 1.500000 -0.050000
v -0.400000 1.100000 -0.050000
v -0.300000 1.100000 -0.050000
v -0.400000 1.500000 -0.050000
v -0.500000 1.100000 -0.050000
v -0.300000 1.600000 -0.050000
v -0.500000 1.600000 -0.050000
v 0.300000 -0.000000 0.050000
v -0.300000 -0.000000 0.050000
v 0.300000 0.100000 0.050000
v 0.000000 0.100000 0.050000
v -0.300000 0.100000 0.050000
v 0.100000 0.300000 0.050000
v 0.000000 0.300000 0.050000
v 0.100000 0.400000 0.050000
v 0.000000 0.400000 0.050000
v -0.300000 1.100000 0.050000
v -0.400000 1.100000 0.050000
v -0.300000 1.500000 0.050000
v -0.500000 1.100000 0.050000
v -0.400000 1.500000 0.050000
v -0.300000 1.600000 0.050000
v -0.500000 1.600000 0.050000
v -0.400000 0.100000 -0.150000
v -0.600000 0.100000 -0.150000
v -0.400000 0.300000 -0.150000
v -0.600000 0.300000 -0.150000
v 0.300000 0.700000 -0.150000
v 0.200000 0.700000 -0.150000
v 0.300000 0.900000 -0.150000
v 0.200000 0.900000 -0.150000
v 0.000000 0.100000 -0.250000
v -0.300000 0.100000 -0.250000
v 0.000000 0.300000 -0.250000
v -0.400000 0.100000 -0.250000
v 0.100000 0.300000 -0.250000
v 0.100000 0.400000 -0.250000
v 0.000000 0.400000 -0.250000
v 0.000000 0.500000 -0.250000
v -0.400000 0.500000 -0.250000
v 0.300000 0.000000 -0.350000
v -0.300000 0.000000 -0.350000
v 0.300000 0.100000 -0.350000
v -0.300000 0.100000 -0.350000
v 0.200000 0.500000 -0.350000
v -0.500000 0.500000 -0.350000
v 0.100000 0.800000 -0.350000
v -0.100000 0.800000 -0.350000
v 0.100000 1.000000 -0.350000
v -0.100000 1.000000 -0.350000
v 0.200000 1.100000 -0.350000
v -0.300000 1.100000 -0.350000
v -0.300000 1.600000 -0.350000
v -0.500000 1.600000 -0.350000
v 0.100000 0.800000 -0.450000
v -0.100000 0.800000 -0.450000
v 0.100000 1.000000 -0.450000
v -0.100000 1.000000 -0.450000
v 0.300000 -0.000000 0.050000
v 0.300000 0.100000 0.350000
v 0.300000 -0.000000 0.350000
v 0.300000 0.100000 0.050000
v 0.300000 0.700000 -0.150000
v 0.300000 0.900000 0.150000
v 0.300000 0.700000 0.150000
v 0.300000 0.900000 -0.150000
v 0.300000 0.000000 -0.350000
v 0.300000 0.100000 -0.050000
v 0.300000 0.000000 -0.050000
v 0.300000 0.100000 -0.350000
v 0.200000 0.700000 0.150000
v 0.200000 1.100000 0.350000
v 0.200000 0.500000 0.350000
v 0.200000 0.900000 0.150000
v 0.200000 0.700000 -0.150000
v 0.200000 0.900000 -0.150000
v 0.200000 0.500000 -0.350000
v 0.200000 1.100000 -0.350000
v 0.100000 0.800000 0.350000
v 0.100000 1.000000 0.450000
v 0.100000 0.800000 0.450000
v 0.100000 1.000000 0.350000
v 0.100000 0.300000 0.050000
v 0.100000 0.400000 0.250000
v 0.100000 0.300000 0.250000
v 0.100000 0.400000 0.050000
v 0.100000 0.300000 -0.250000
v 0.100000 0.400000 -0.050000
v 0.100000 0.300000 -0.050000
v 0.100000 0.400000 -0.250000
v 0.100000 0.800000 -0.450000
v 0.100000 1.000000 -0.350000
v 0.100000 0.800000 -0.350000
v 0.100000 1.000000 -0.450000
v 0.000000 0.100000 0.050000
v 0.000000 0.300000 0.250000
v 0.000000 0.100000 0.250000
v 0.000000 0.300000 0.050000
v 0.000000 0.400000 0.050000
v 0.000000 0.500000 0.250000
v 0.000000 0.400000 0.250000
v 0.000000 0.100000 -0.050000
v 0.000000 0.300000 -0.050000
v 0.000000 0.400000 -0.050000
v 0.000000 0.100000 -0.250000
v 0.000000 0.300000 -0.250000
v 0.000000 0.400000 -0.250000
v 0.000000 0.500000 -0.250000
v -0.300000 1.100000 0.250000
v -0.300000 1.600000 0.350000
v -0.300000 1.100000 0.350000
v -0.300000 1.500000 0.250000
v -0.300000 1.100000 0.050000
v -0.300000 1.500000 0.050000
v -0.300000 1.600000 0.050000
v -0.300000 1.100000 -0.250000
v -0.300000 1.500000 -0.050000
v -0.300000 1.100000 -0.050000
v -0.300000 1.500000 -0.250000
v -0.300000 1.600000 -0.050000
v -0.300000 1.100000 -0.350000
v -0.300000 1.600000 -0.350000
v -0.100000 0.800000 0.450000
v -0.100000 1.000000 0.450000
v -0.100000 0.800000 0.350000
v -0.100000 1.000000 0.350000
v -0.100000 0.800000 -0.350000
v -0.100000 1.000000 -0.350000
v -0.100000 0.800000 -0.450000
v -0.100000 1.000000 -0.450000
v -0.300000 -0.000000 0.350000
v -0.300000 0.100000 0.350000
v -0.300000 0.100000 0.250000
v -0.300000 -0.000000 0.050000
v -0.300000 0.100000 0.050000
v -0.300000 0.000000 -0.050000
v -0.300000 0.100000 -0.050000
v -0.300000 0.100000 -0.250000
v -0.300000 0.000000 -0.350000
v -0.300000 0.100000 -0.350000
v -0.400000 0.100000 0.250000
v -0.400000 0.500000 0.250000
v -0.400000 0.100000 0.150000
v -0.400000 0.300000 0.150000
v -0.400000 0.300000 -0.150000
v -0.400000 0.100000 -0.150000
v -0.400000 0.100000 -0.250000
v -0.400000 0.500000 -0.250000
v -0.500000 0.500000 0.350000
v -0.500000 1.600000 0.350000
v -0.500000 1.100000 0.050000
v -0.500000 1.600000 0.050000
v -0.500000 1.100000 -0.050000
v -0.500000 0.500000 -0.350000
v -0.500000 1.600000 -0.050000
v -0.500000 1.600000 -0.350000
v -0.600000 0.100000 0.150000
v -0.600000 0.300000 0.150000
v -0.600000 0.100000 -0.150000
v -0.600000 0.300000 -0.150000
v -0.300000 -0.000000 0.350000
v 0.300000 -0.000000 0.050000
v 0.300000 -0.000000 0.350000
v -0.300000 -0.000000 0.050000
v -0.300000 0.000000 -0.050000
v 0.300000 0.000000 -0.350000
v 0.300000 0.000000 -0.050000
v -0.300000 0.000000 -0.350000
v -0.300000 0.100000 0.050000
v 0.000000 0.100000 -0.050000
v 0.000000 0.100000 0.050000
v -0.300000 0.100000 -0.050000
v -0.400000 0.100000 0.250000
v -0.300000 0.100000 0.250000
v -0.300000 0.100000 -0.250000
v -0.400000 0.100000 0.150000
v -0.400000 0.100000 -0.150000
v -0.400000 0.100000 -0.250000
v -0.600000 0.100000 0.150000
v -0.600000 0.100000 -0.150000
v 0.000000 0.300000 0.250000
v 0.100000 0.300000 0.050000
v 0.100000 0.300000 0.250000
v 0.000000 0.300000 0.050000
v 0.000000 0.300000 -0.050000
v 0.100000 0.300000 -0.250000
v 0.100000 0.300000 -0.050000
v 0.000000 0.300000 -0.250000
v 0.000000 0.500000 0.250000
v 0.200000 0.500000 -0.350000
v 0.200000 0.500000 0.350000
v 0.000000 0.500000 -0.250000
v -0.400000 0.500000 0.250000
v -0.400000 0.500000 -0.250000
v -0.500000 0.500000 0.350000
v -0.500000 0.500000 -0.350000
v 0.200000 0.700000 0.150000
v 0.300000 0.700000 -0.150000
v 0.300000 0.700000 0.150000
v 0.200000 0.700000 -0.150000
v -0.100000 0.800000 0.450000
v 0.100000 0.800000 0.350000
v 0.100000 0.800000 0.450000
v -0.100000 0.800000 0.350000
v -0.100000 0.800000 -0.350000
v 0.100000 0.800000 -0.450000
v 0.100000 0.800000 -0.350000
v -0.100000 0.800000 -0.450000
v 0.300000 0.100000 0.350000
v 0.300000 0.100000 0.050000
v 0.000000 0.100000 0.250000
v 0.000000 0.100000 0.050000
v 0.300000 0.100000 -0.050000
v 0.300000 0.100000 -0.350000
v 0.000000 0.100000 -0.050000
v 0.000000 0.100000 -0.250000
v -0.300000 0.100000 0.350000
v -0.300000 0.100000 0.250000
v -0.300000 0.100000 -0.250000
v -0.300000 0.100000 -0.350000
v -0.400000 0.300000 0.150000
v -0.400000 0.300000 -0.150000
v -0.600000 0.300000 0.150000
v -0.600000 0.300000 -0.150000
v 0.100000 0.400000 0.250000
v 0.100000 0.400000 0.050000
v 0.000000 0.400000 0.250000
v 0.000000 0.400000 0.050000
v 0.100000 0.400000 -0.050000
v 0.100000 0.400000 -0.250000
v 0.000000 0.400000 -0.050000
v 0.000000 0.400000 -0.250000
v 0.300000 0.900000 0.150000
v 0.300000 0.900000 -0.150000
v 0.200000 0.900000 0.150000
v 0.200000 0.900000 -0.150000
v 0.100000 1.000000 0.450000
v 0.100000 1.000000 0.350000
v -0.100000 1.000000 0.450000
v -0.100000 1.000000 0.350000
v 0.100000 1.000000 -0.350000
v 0.100000 1.000000 -0.450000
v -0.100000 1.000000 -0.350000
v -0.100000 1.000000 -0.450000
v 0.200000 1.100000 0.350000
v 0.200000 1.100000 -0.350000
v -0.300000 1.100000 0.350000
v -0.300000 1.100000 0.250000
v -0.300000 1.100000 0.050000
v -0.300000 1.100000 -0.050000
v -0.300000 1.100000 -0.250000
v -0.300000 1.100000 -0.350000
v -0.400000 1.100000 0.050000
v -0.400000 1.100000 -0.050000
v -0.500000 1.100000 0.050000
v -0.500000 1.100000 -0.050000
v -0.300000 1.600000 0.350000
v -0.300000 1.600000 0.050000
v -0.500000 1.600000 0.350000
v -0.500000 1.600000 0.050000
v -0.300000 1.600000 -0.050000
v -0.300000 1.600000 -0.350000
v -0.500000 1.600000 -0.050000
v -0.500000 1.600000 -0.350000
vt 0.986328 0.500000
vt 0.986328 0.500000
vt 0.986328 0.500000
vt 0.986328 0.500000
vt 0.970703 0.500000
vt 0.970703 0.500000
vt 0.970703 0.500000
vt 0.970703 0.500000
vt 0.970703 0.500000
vt 0.970703 0.500000
vt 0.970703 0.500000
vt 0.970703 0.500000
vt 0.970703 0.500000
vt 0.970703 0.500000
vt 0.970703 0.500000
vt 0.970703 0.500000
vt 0.970703 0.500000
vt 0.970703 0.500000
vt 0.970703 0.500000
vt 0.970703 0.500000
vt 0.970703 0.500000
vt 0.970703 0.500000
vt 0.970703 0.500000
vt 0.970703 0.500000
vt 0.970703 0.500000
vt 0.970703 0.500000
vt 0.970703 0.500000
vt 0.970703 0.500000
vt 0.970703 0.500000
vt 0.970703 0.500000
vt 0.970703 0.500000
vt 0.974609 0.500000
vt 0.974609 0.500000
vt 0.974609 0.500000
vt 0.974609 0.500000
vt 0.970703 0.500000
vt 0.970703 0.500000
vt 0.970703 0.500000
vt 0.970703 0.500000
vt 0.970703 0.500000
vt 0.970703 0.500000
vt 0.970703 0.500000
vt 0.970703 0.500000
vt 0.970703 0.500000
vt 0.978516 0.500000
vt 0.978516 0.500000
vt 0.978516 0.500000
vt 0.970703 0.500000
vt 0.970703 0.500000
vt 0.970703 0.500000
vt 0.978516 0.500000
vt 0.970703 0.500000
vt 0.970703 0.500000
vt 0.970703 0.500000
vt 0.970703 0.500000
vt 0.970703 0.500000
vt 0.970703 0.500000
vt 0.970703 0.500000
vt 0.970703 0.500000
vt 0.970703 0.500000
vt 0.970703 0.500000
vt 0.970703 0.500000
vt 0.970703 0.500000
vt 0.978516 0.500000
vt 0.978516 0.500000
vt 0.978516 0.500000
vt 0.970703 0.500000
vt 0.970703 0.500000
vt 0.970703 0.500000
vt 0.978516 0.500000
vt 0.970703 0.500000
vt 0.970703 0.500000
vt 0.970703 0.500000
vt 0.970703 0.500000
vt 0.970703 0.500000
vt 0.970703 0.500000
vt 0.970703 0.500000
vt 0.974609 0.500000
vt 0.974609 0.500000
vt 0.974609 0.500000
vt 0.974609 0.500000
vt 0.970703 0.500000
vt 0.970703 0.500000
vt 0.970703 0.500000
vt 0.970703 0.500000
vt 0.970703 0.500000
vt 0.970703 0.500000
vt 0.970703 0.500000
vt 0.970703 0.500000
vt 0.970703 0.500000
vt 0.970703 0.500000
vt 0.970703 0.500000
vt 0.970703 0.500000
vt 0.970703 0.500000
vt 0.970703 0.500000
vt 0.970703 0.500000
vt 0.970703 0.500000
vt 0.970703 0.500000
vt 0.970703 0.500000
vt 0.970703 0.500000
vt 0.970703 0.500000
vt 0.970703 0.500000
vt 0.970703 0.500000
vt 0.970703 0.500000
vt 0.986328 0.500000
vt 0.986328 0.500000
vt 0.986328 0.500000
vt 0.986328 0.500000
vt 0.970703 0.500000
vt 0.970703 0.500000
vt 0.970703 0.500000
vt 0.970703 0.500000
vt 0.974609 0.500000
vt 0.974609 0.500000
vt 0.974609 0.500000
vt 0.974609 0.500000
vt 0.970703 0.500000
vt 0.970703 0.500000
vt 0.970703 0.500000
vt 0.970703 0.500000
vt 0.970703 0.500000
vt 0.970703 0.500000
vt 0.970703 0.500000
vt 0.970703 0.500000
vt 0.970703 0.500000
vt 0.970703 0.500000
vt 0.970703 0.500000
vt 0.970703 0.500000
vt 0.986328 0.500000
vt 0.986328 0.500000
vt 0.986328 0.500000
vt 0.986328 0.500000
vt 0.970703 0.500000
vt 0.970703 0.500000
vt 0.970703 0.500000
vt 0.970703 0.500000
vt 0.970703 0.500000
vt 0.970703 0.500000
vt 0.970703 0.500000
vt 0.970703 0.500000
vt 0.986328 0.500000
vt 0.986328 0.500000
vt 0.986328 0.500000
vt 0.986328 0.500000
vt 0.970703 0.500000
vt 0.970703 0.500000
vt 0.970703 0.500000
vt 0.970703 0.500000
vt 0.970703 0.500000
vt 0.970703 0.500000
vt 0.970703 0.500000
vt 0.970703 0.500000
vt 0.970703 0.500000
vt 0.970703 0.500000
vt 0.970703 0.500000
vt 0.970703 0.500000
vt 0.970703 0.500000
vt 0.970703 0.500000
vt 0.970703 0.500000
vt 0.970703 0.500000
vt 0.970703 0.500000
vt 0.970703 0.500000
vt 0.978516 0.500000
vt 0.978516 0.500000
vt 0.978516 0.500000
vt 0.970703 0.500000
vt 0.978516 0.500000
vt 0.970703 0.500000
vt 0.978516 0.500000
vt 0.978516 0.500000
vt 0.978516 0.500000
vt 0.970703 0.500000
vt 0.970703 0.500000
vt 0.970703 0.500000
vt 0.978516 0.500000
vt 0.970703 0.500000
vt 0.970703 0.500000
vt 0.970703 0.500000
vt 0.986328 0.500000
vt 0.986328 0.500000
vt 0.986328 0.500000
vt 0.986328 0.500000
vt 0.986328 0.500000
vt 0.986328 0.500000
vt 0.986328 0.500000
vt 0.986328 0.500000
vt 0.970703 0.500000
vt 0.970703 0.500000
vt 0.970703 0.500000
vt 0.970703 0.500000
vt 0.970703 0.500000
vt 0.970703 0.500000
vt 0.970703 0.500000
vt 0.970703 0.500000
vt 0.970703 0.500000
vt 0.970703 0.500000
vt 0.970703 0.500000
vt 0.970703 0.500000
vt 0.970703 0.500000
vt 0.970703 0.500000
vt 0.970703 0.500000
vt 0.970703 0.500000
vt 0.970703 0.500000
vt 0.970703 0.500000
vt 0.970703 0.500000
vt 0.970703 0.500000
vt 0.970703 0.500000
vt 0.970703 0.500000
vt 0.970703 0.500000
vt 0.970703 0.500000
vt 0.970703 0.500000
vt 0.970703 0.500000
vt 0.970703 0.500000
vt 0.970703 0.500000
vt 0.970703 0.500000
vt 0.970703 0.500000
vt 0.970703 0.500000
vt 0.970703 0.500000
vt 0.970703 0.500000
vt 0.970703 0.500000
vt 0.970703 0.500000
vt 0.970703 0.500000
vt 0.970703 0.500000
vt 0.970703 0.500000
vt 0.970703 0.500000
vt 0.970703 0.500000
vt 0.970703 0.500000
vt 0.970703 0.500000
vt 0.970703 0.500000
vt 0.970703 0.500000
vt 0.970703 0.500000
vt 0.970703 0.500000
vt 0.970703 0.500000
vt 0.970703 0.500000
vt 0.970703 0.500000
vt 0.970703 0.500000
vt 0.970703 0.500000
vt 0.970703 0.500000
vt 0.970703 0.500000
vt 0.970703 0.500000
vt 0.970703 0.500000
vt 0.970703 0.500000
vt 0.970703 0.500000
vt 0.970703 0.500000
vt 0.970703 0.500000
vt 0.970703 0.500000
vt 0.970703 0.500000
vt 0.970703 0.500000
vt 0.970703 0.500000
vt 0.970703 0.500000
vt 0.970703 0.500000
vt 0.970703 0.500000
vt 0.974609 0.500000
vt 0.974609 0.500000
vt 0.974609 0.500000
vt 0.974609 0.500000
vt 0.986328 0.500000
vt 0.986328 0.500000
vt 0.986328 0.500000
vt 0.986328 0.500000
vt 0.986328 0.500000
vt 0.986328 0.500000
vt 0.986328 0.500000
vt 0.986328 0.500000
vt 0.970703 0.500000
vt 0.970703 0.500000
vt 0.970703 0.500000
vt 0.970703 0.500000
vt 0.970703 0.500000
vt 0.970703 0.500000
vt 0.970703 0.500000
vt 0.970703 0.500000
vt 0.970703 0.500000
vt 0.970703 0.500000
vt 0.970703 0.500000
vt 0.970703 0.500000
vt 0.970703 0.500000
vt 0.970703 0.500000
vt 0.970703 0.500000
vt 0.970703 0.500000
vt 0.970703 0.500000
vt 0.970703 0.500000
vt 0.970703 0.500000
vt 0.970703 0.500000
vt 0.970703 0.500000
vt 0.970703 0.500000
vt 0.970703 0.500000
vt 0.970703 0.500000
vt 0.974609 0.500000
vt 0.974609 0.500000
vt 0.974609 0.500000
vt 0.974609 0.500000
vt 0.986328 0.500000
vt 0.986328 0.500000
vt 0.986328 0.500000
vt 0.986328 0.500000
vt 0.986328 0.500000
vt 0.986328 0.500000
vt 0.986328 0.500000
vt 0.986328 0.500000
vt 0.970703 0.500000
vt 0.970703 0.500000
vt 0.970703 0.500000
vt 0.970703 0.500000
vt 0.970703 0.500000
vt 0.970703 0.500000
vt 0.970703 0.500000
vt 0.970703 0.500000
vt 0.970703 0.500000
vt 0.970703 0.500000
vt 0.970703 0.500000
vt 0.970703 0.500000
vt 0.970703 0.500000
vt 0.970703 0.500000
vt 0.970703 0.500000
vt 0.970703 0.500000
vt 0.970703 0.500000
vt 0.970703 0.500000
vt 0.970703 0.500000
vt 0.970703 0.500000
vn 0.0000 -0.0000 1.0000
vn 0.0000 0.0000 -1.0000
vn 1.0000 0.0000 0.0000
vn -1.0000 0.0000 0.0000
vn 0.0000 -1.0000 -0.0000
vn 0.0000 1.0000 0.0000
usemtl palette
s 1
f 1/1/1 2/2/1 3/3/1
f 4/4/1 2/2/1 1/1/1
f 5/5/1 6/6/1 7/7/1
f 8/8/1 6/6/1 5/5/1
f 9/9/1 10/10/1 11/11/1
f 12/12/1 10/10/1 9/9/1
f 13/13/1 9/9/1 11/11/1
f 14/14/1 10/10/1 12/12/1
f 15/15/1 13/13/1 11/11/1
f 15/15/1 14/14/1 13/13/1
f 16/16/1 10/10/1 14/14/1
f 16/16/1 14/14/1 15/15/1
f 17/17/1 10/10/1 16/16/1
f 18/18/1 10/10/1 17/17/1
f 19/19/1 20/20/1 21/21/1
f 19/19/1 22/22/1 20/20/1
f 23/23/1 19/19/1 24/24/1
f 25/25/1 22/22/1 19/19/1
f 25/25/1 19/19/1 23/23/1
f 26/26/1 22/22/1 25/25/1
f 27/27/1 22/22/1 26/26/1
f 28/28/1 29/29/1 30/30/1
f 31/31/1 29/29/1 28/28/1
f 32/32/1 33/33/1 34/34/1
f 35/35/1 33/33/1 32/32/1
f 36/36/1 37/37/1 38/38/1
f 39/39/1 37/37/1 36/36/1
f 40/40/1 37/37/1 39/39/1
f 41/41/1 42/42/1 43/43/1
f 44/44/1 42/42/1 41/41/1
f 45/45/1 46/46/1 47/47/1
f 48/48/1 49/49/1 46/50/1
f 48/51/1 46/46/1 45/45/1
f 50/52/1 48/48/1 45/53/1
f 51/54/1 49/49/1 48/48/1
f 51/54/1 48/48/1 50/52/1
f 52/55/2 53/56/2 54/57/2
f 54/57/2 53/56/2 55/58/2
f 55/58/2 53/56/2 56/59/2
f 57/60/2 58/61/2 59/62/2
f 59/62/2 58/61/2 60/63/2
f 61/64/2 62/65/2 63/66/2
f 62/67/2 64/68/2 65/69/2
f 63/66/2 62/65/2 65/70/2
f 63/71/2 65/69/2 66/72/2
f 65/69/2 64/68/2 67/73/2
f 66/72/2 65/69/2 67/73/2
f 68/74/2 69/75/2 70/76/2
f 70/76/2 69/75/2 71/77/2
f 72/78/2 73/79/2 74/80/2
f 74/80/2 73/79/2 75/81/2
f 76/82/2 77/83/2 78/84/2
f 77/83/2 79/85/2 78/84/2
f 80/86/2 78/84/2 81/87/2
f 78/84/2 79/85/2 82/88/2
f 81/87/2 78/84/2 82/88/2
f 82/88/2 79/85/2 83/89/2
f 83/89/2 79/85/2 84/90/2
f 85/91/2 86/92/2 87/93/2
f 87/93/2 86/92/2 88/94/2
f 89/95/2 90/96/2 91/97/2
f 91/97/2 90/96/2 92/98/2
f 89/95/2 91/97/2 93/99/2
f 92/98/2 90/96/2 94/100/2
f 89/95/2 93/99/2 95/101/2
f 93/99/2 94/100/2 95/101/2
f 94/100/2 90/96/2 96/102/2
f 95/101/2 94/100/2 96/102/2
f 96/102/2 90/96/2 97/103/2
f 97/103/2 90/96/2 98/104/2
f 99/105/2 100/106/2 101/107/2
f 101/107/2 100/106/2 102/108/2
f 103/109/3 104/110/3 105/111/3
f 106/112/3 104/110/3 103/109/3
f 107/113/3 108/114/3 109/115/3
f 110/116/3 108/114/3 107/113/3
f 111/117/3 112/118/3 113/119/3
f 114/120/3 112/118/3 111/117/3
f 115/121/3 116/122/3 117/123/3
f 118/124/3 116/122/3 115/121/3
f 119/125/3 115/121/3 117/123/3
f 120/126/3 116/122/3 118/124/3
f 121/127/3 119/125/3 117/123/3
f 121/127/3 120/126/3 119/125/3
f 122/128/3 116/122/3 120/126/3
f 122/128/3 120/126/3 121/127/3
f 123/129/3 124/130/3 125/131/3
f 126/132/3 124/130/3 123/129/3
f 127/133/3 128/134/3 129/135/3
f 130/136/3 128/134/3 127/133/3
f 131/137/3 132/138/3 133/139/3
f 134/140/3 132/138/3 131/137/3
f 135/141/3 136/142/3 137/143/3
f 138/144/3 136/142/3 135/141/3
f 139/145/3 140/146/3 141/147/3
f 142/148/3 140/146/3 139/145/3
f 143/149/3 144/150/3 145/151/3
f 146/152/3 142/148/3 139/145/3
f 146/152/3 143/149/3 142/148/3
f 147/153/3 143/149/3 146/152/3
f 148/154/3 144/150/3 143/149/3
f 148/154/3 143/149/3 147/153/3
f 149/155/3 147/153/3 146/152/3
f 150/156/3 147/153/3 149/155/3
f 151/157/3 144/150/3 148/154/3
f 152/158/3 144/150/3 151/157/3
f 153/159/3 154/160/3 155/161/3
f 156/162/3 154/160/3 153/159/3
f 157/163/3 156/164/3 153/165/3
f 158/166/3 154/160/3 156/162/3
f 158/167/3 156/164/3 157/163/3
f 159/168/3 154/160/3 158/166/3
f 160/169/3 161/170/3 162/171/3
f 163/172/3 164/173/3 161/174/3
f 163/175/3 161/170/3 160/169/3
f 165/176/3 163/172/3 160/177/3
f 166/178/3 164/173/3 163/172/3
f 166/178/3 163/172/3 165/176/3
f 167/179/4 168/180/4 169/181/4
f 169/181/4 168/180/4 170/182/4
f 171/183/4 172/184/4 173/185/4
f 173/185/4 172/184/4 174/186/4
f 175/187/4 176/188/4 177/189/4
f 175/187/4 177/189/4 178/190/4
f 178/190/4 177/189/4 179/191/4
f 180/192/4 181/193/4 182/194/4
f 180/192/4 182/194/4 183/195/4
f 183/195/4 182/194/4 184/196/4
f 185/197/4 186/198/4 187/199/4
f 187/199/4 186/198/4 188/200/4
f 188/200/4 186/198/4 189/201/4
f 190/202/4 189/201/4 191/203/4
f 189/201/4 186/198/4 192/204/4
f 191/203/4 189/201/4 192/204/4
f 193/205/4 194/206/4 195/207/4
f 195/207/4 194/206/4 196/208/4
f 193/205/4 195/207/4 197/209/4
f 193/205/4 197/209/4 198/210/4
f 197/209/4 199/211/4 198/210/4
f 198/210/4 199/211/4 200/212/4
f 201/213/4 202/214/4 203/215/4
f 203/215/4 202/214/4 204/216/4
f 205/217/5 206/218/5 207/219/5
f 208/220/5 206/218/5 205/217/5
f 209/221/5 210/222/5 211/223/5
f 212/224/5 210/222/5 209/221/5
f 213/225/5 214/226/5 215/227/5
f 216/228/5 214/226/5 213/225/5
f 217/229/5 213/225/5 218/230/5
f 217/229/5 219/231/5 216/228/5
f 217/229/5 216/228/5 213/225/5
f 220/232/5 219/231/5 217/229/5
f 221/233/5 219/231/5 220/232/5
f 222/234/5 219/231/5 221/233/5
f 223/235/5 221/233/5 220/232/5
f 224/236/5 221/233/5 223/235/5
f 225/237/5 226/238/5 227/239/5
f 228/240/5 226/238/5 225/237/5
f 229/241/5 230/242/5 231/243/5
f 232/244/5 230/242/5 229/241/5
f 233/245/5 234/246/5 235/247/5
f 236/248/5 234/246/5 233/245/5
f 237/249/5 233/245/5 235/247/5
f 238/250/5 234/246/5 236/248/5
f 239/251/5 237/249/5 235/247/5
f 239/251/5 238/250/5 237/249/5
f 240/252/5 234/246/5 238/250/5
f 240/252/5 238/250/5 239/251/5
f 241/253/5 242/254/5 243/255/5
f 244/256/5 242/254/5 241/253/5
f 245/257/5 246/258/5 247/259/5
f 248/260/5 246/258/5 245/257/5
f 249/261/5 250/262/5 251/263/5
f 252/264/5 250/262/5 249/261/5
f 253/265/6 254/266/6 255/267/6
f 255/267/6 254/266/6 256/268/6
f 257/269/6 258/270/6 259/271/6
f 259/271/6 258/270/6 260/272/6
f 253/265/6 255/267/6 261/273/6
f 261/273/6 255/267/6 262/274/6
f 260/272/6 258/270/6 263/275/6
f 263/275/6 258/270/6 264/276/6
f 265/277/6 266/278/6 267/279/6
f 267/279/6 266/278/6 268/280/6
f 269/281/6 270/282/6 271/283/6
f 271/283/6 270/282/6 272/284/6
f 273/285/6 274/286/6 275/287/6
f 275/287/6 274/286/6 276/288/6
f 277/289/6 278/290/6 279/291/6
f 279/291/6 278/290/6 280/292/6
f 281/293/6 282/294/6 283/295/6
f 283/295/6 282/294/6 284/296/6
f 285/297/6 286/298/6 287/299/6
f 287/299/6 286/298/6 288/300/6
f 289/301/6 290/302/6 291/303/6
f 291/303/6 290/302/6 292/304/6
f 292/304/6 290/302/6 293/305/6
f 293/305/6 290/302/6 294/306/6
f 294/306/6 290/302/6 295/307/6
f 295/307/6 290/302/6 296/308/6
f 293/305/6 294/306/6 297/309/6
f 297/309/6 294/306/6 298/310/6
f 297/309/6 298/310/6 299/311/6
f 299/311/6 298/310/6 300/312/6
f 301/313/6 302/314/6 303/315/6
f 303/315/6 302/314/6 304/316/6
f 305/317/6 306/318/6 307/319/6
f 307/319/6 306/318/6 308/320/6
