# Blender v2.80 (sub 75) OBJ File: ''
# www.blender.org
mtllib bunny.mtl
o bunny
v -0.450000 -0.294959 0.037815
v -0.450000 -0.394959 -0.462185
v -0.450000 -0.394959 0.037815
v -0.450000 -0.294959 -0.062185
v -0.450000 0.005041 -0.062185
v -0.450000 0.005041 -0.462185
v -0.350000 -0.294959 0.337815
v -0.350000 -0.394959 0.037815
v -0.350000 -0.394959 0.337815
v -0.350000 -0.294959 0.237815
v -0.350000 -0.294959 0.037815
v -0.350000 -0.094959 0.237815
v -0.350000 -0.294959 -0.062185
v -0.350000 -0.094959 0.137815
v -0.350000 0.005041 0.237815
v -0.350000 0.005041 0.137815
v -0.350000 0.005041 -0.062185
v -0.350000 0.305041 0.237815
v -0.350000 0.005041 -0.462185
v -0.350000 0.305041 0.137815
v -0.350000 0.305041 -0.062185
v -0.350000 0.305041 -0.462185
v -0.350000 0.705041 0.137816
v -0.350000 0.705041 -0.062184
v -0.150000 -0.094959 -0.462185
v -0.150000 -0.394959 -0.562185
v -0.150000 -0.394959 -0.462185
v -0.150000 -0.094959 -0.562185
v 0.050000 0.605041 0.137815
v 0.050000 0.305041 0.037815
v 0.050000 0.305041 0.137815
v 0.050000 0.605041 0.037815
v 0.050000 0.305041 -0.062185
v 0.050000 0.705041 0.137816
v 0.050000 0.705041 -0.062184
v 0.150000 -0.294959 0.337815
v 0.150000 -0.394959 0.237815
v 0.150000 -0.394959 0.337815
v 0.150000 -0.294959 0.237815
v -0.150000 -0.394959 0.337815
v -0.150000 -0.394959 0.237815
v -0.150000 -0.294959 0.337815
v -0.150000 -0.294959 0.237815
v -0.050000 0.305041 0.137815
v -0.050000 0.305041 0.037815
v -0.050000 0.605041 0.137815
v -0.050000 0.305041 -0.062185
v -0.050000 0.605041 0.037815
v -0.050000 0.705041 0.137816
v -0.050000 0.705041 -0.062184
v 0.150000 -0.394959 -0.462185
v 0.150000 -0.394959 -0.562185
v 0.150000 -0.094959 -0.462185
v 0.150000 -0.094959 -0.562185
v 0.350000 -0.394959 0.337815
v 0.350000 -0.394959 0.037815
v 0.350000 -0.294959 0.337815
v 0.350000 -0.294959 0.237815
v 0.350000 -0.294959 0.037815
v 0.350000 -0.294959 -0.062185
v 0.350000 -0.094959 0.237815
v 0.350000 -0.094959 0.137815
v 0.350000 0.005041 0.237815
v 0.350000 0.005041 0.137815
v 0.350000 0.005041 -0.062185
v 0.350000 0.305041 0.237815
v 0.350000 0.005041 -0.462185
v 0.350000 0.305041 0.137815
v 0.350000 0.305041 -0.062185
v 0.350000 0.305041 -0.462185
v 0.350000 0.705041 0.137816
v 0.350000 0.705041 -0.062184
v 0.450000 -0.394959 0.037815
v 0.450000 -0.394959 -0.462185
v 0.450000 -0.294959 0.037815
v 0.450000 -0.294959 -0.062185
v 0.450000 0.005041 -0.062185
v 0.450000 0.005041 -0.462185
v -0.150000 -0.394959 0.337815
v -0.350000 -0.294959 0.337815
v -0.350000 -0.394959 0.337815
v -0.150000 -0.294959 0.337815
v 0.350000 -0.394959 0.337815
v 0.150000 -0.294959 0.337815
v 0.150000 -0.394959 0.337815
v 0.350000 -0.294959 0.337815
v -0.250000 -0.094959 0.237815
v -0.350000 -0.094959 0.237815
v -0.350000 -0.294959 0.237815
v -0.350000 0.005041 0.237815
v -0.250000 0.005041 0.237815
v -0.350000 0.305041 0.237815
v -0.250000 0.105041 0.237815
v -0.150000 -0.294959 0.237815
v -0.150000 -0.194959 0.237815
v -0.150000 -0.094959 0.237815
v -0.150000 0.005041 0.237815
v -0.150000 0.105041 0.237815
v -0.050000 -0.094959 0.237815
v -0.050000 0.005041 0.237815
v 0.050000 -0.094959 0.237815
v 0.050000 0.005041 0.237815
v 0.150000 -0.394959 0.237815
v -0.150000 -0.394959 0.237815
v 0.150000 -0.294959 0.237815
v 0.150000 -0.194959 0.237815
v 0.150000 -0.094959 0.237815
v 0.150000 0.005041 0.237815
v 0.150000 0.105041 0.237815
v 0.250000 -0.094959 0.237815
v 0.250000 0.005041 0.237815
v 0.250000 0.105041 0.237815
v 0.350000 -0.294959 0.237815
v 0.350000 -0.094959 0.237815
v 0.350000 0.005041 0.237815
v 0.350000 0.305041 0.237815
v -0.250000 0.305041 0.137815
v -0.350000 0.705041 0.137816
v -0.350000 0.305041 0.137815
v -0.250000 0.605041 0.137815
v -0.050000 0.305041 0.137815
v -0.050000 0.605041 0.137815
v -0.050000 0.705041 0.137816
v 0.250000 0.305041 0.137815
v 0.050000 0.605041 0.137815
v 0.050000 0.305041 0.137815
v 0.250000 0.605041 0.137815
v 0.050000 0.705041 0.137816
v 0.350000 0.305041 0.137815
v 0.350000 0.705041 0.137816
v -0.350000 -0.394959 0.037815
v -0.450000 -0.294959 0.037815
v -0.450000 -0.394959 0.037815
v -0.350000 -0.294959 0.037815
v 0.450000 -0.394959 0.037815
v 0.350000 -0.294959 0.037815
v 0.350000 -0.394959 0.037815
v 0.450000 -0.294959 0.037815
v -0.350000 -0.294959 -0.062185
v -0.450000 0.005041 -0.062185
v -0.450000 -0.294959 -0.062185
v -0.350000 0.005041 -0.062185
v 0.450000 -0.294959 -0.062185
v 0.350000 0.005041 -0.062185
v 0.350000 -0.294959 -0.062185
v 0.450000 0.005041 -0.062185
v -0.350000 0.305041 -0.062185
v -0.350000 0.705041 -0.062184
v -0.050000 0.305041 -0.062185
v -0.050000 0.705041 -0.062184
v 0.050000 0.305041 -0.062185
v 0.050000 0.705041 -0.062184
v 0.350000 0.305041 -0.062185
v 0.350000 0.705041 -0.062184
v -0.450000 -0.394959 -0.462185
v -0.450000 0.005041 -0.462185
v -0.350000 0.005041 -0.462185
v -0.150000 -0.394959 -0.462185
v -0.350000 0.305041 -0.462185
v -0.150000 -0.094959 -0.462185
v 0.150000 -0.094959 -0.462185
v 0.350000 0.005041 -0.462185
v 0.150000 -0.394959 -0.462185
v 0.350000 0.305041 -0.462185
v 0.450000 -0.394959 -0.462185
v 0.450000 0.005041 -0.462185
v -0.150000 -0.394959 -0.562185
v -0.150000 -0.094959 -0.562185
v 0.150000 -0.394959 -0.562185
v 0.150000 -0.094959 -0.562185
v -0.150000 -0.394959 0.237815
v -0.150000 -0.394959 0.337815
v -0.350000 -0.394959 0.337815
v 0.150000 -0.394959 0.237815
v 0.350000 -0.394959 0.337815
v 0.150000 -0.394959 0.337815
v -0.350000 -0.394959 0.037815
v 0.350000 -0.394959 0.037815
v -0.450000 -0.394959 -0.462185
v -0.450000 -0.394959 0.037815
v 0.450000 -0.394959 0.037815
v -0.150000 -0.394959 -0.462185
v 0.150000 -0.394959 -0.462185
v 0.450000 -0.394959 -0.462185
v -0.150000 -0.394959 -0.562185
v 0.150000 -0.394959 -0.562185
v -0.350000 -0.294959 0.337815
v -0.150000 -0.294959 0.337815
v -0.350000 -0.294959 0.237815
v -0.150000 -0.294959 0.237815
v 0.150000 -0.294959 0.337815
v 0.350000 -0.294959 0.337815
v 0.150000 -0.294959 0.237815
v 0.350000 -0.294959 0.237815
v -0.450000 -0.294959 0.037815
v -0.350000 -0.294959 0.037815
v -0.450000 -0.294959 -0.062185
v -0.350000 -0.294959 -0.062185
v 0.350000 -0.294959 0.037815
v 0.450000 -0.294959 0.037815
v 0.350000 -0.294959 -0.062185
v 0.450000 -0.294959 -0.062185
v -0.150000 -0.094959 -0.462185
v 0.150000 -0.094959 -0.462185
v -0.150000 -0.094959 -0.562185
v 0.150000 -0.094959 -0.562185
v -0.450000 0.005041 -0.062185
v -0.350000 0.005041 -0.062185
v -0.450000 0.005041 -0.462185
v -0.350000 0.005041 -0.462185
v 0.350000 0.005041 -0.062185
v 0.450000 0.005041 -0.062185
v 0.350000 0.005041 -0.462185
v 0.450000 0.005041 -0.462185
v -0.350000 0.305041 0.237815
v 0.350000 0.305041 0.237815
v -0.350000 0.305041 0.137815
v -0.250000 0.305041 0.137815
v -0.050000 0.305041 0.137815
v 0.050000 0.305041 0.137815
v 0.250000 0.305041 0.137815
v 0.350000 0.305041 0.137815
v -0.050000 0.305041 0.037815
v 0.050000 0.305041 0.037815
v -0.050000 0.305041 -0.062185
v 0.050000 0.305041 -0.062185
v -0.350000 0.305041 -0.462185
v 0.350000 0.305041 -0.062185
v -0.350000 0.305041 -0.062185
v 0.350000 0.305041 -0.462185
v -0.350000 0.705041 0.137816
v -0.050000 0.705041 0.137816
v -0.350000 0.705041 -0.062184
v -0.050000 0.705041 -0.062184
v 0.050000 0.705041 0.137816
v 0.350000 0.705041 0.137816
v 0.050000 0.705041 -0.062184
v 0.350000 0.705041 -0.062184
vt 0.970703 0.500000
vt 0.970703 0.500000
vt 0.970703 0.500000
vt 0.970703 0.500000
vt 0.970703 0.500000
vt 0.970703 0.500000
vt 0.970703 0.500000
vt 0.970703 0.500000
vt 0.970703 0.500000
vt 0.970703 0.500000
vt 0.970703 0.500000
vt 0.970703 0.500000
vt 0.970703 0.500000
vt 0.970703 0.500000
vt 0.978516 0.500000
vt 0.978516 0.500000
vt 0.978516 0.500000
vt 0.970703 0.500000
vt 0.978516 0.500000
vt 0.970703 0.500000
vt 0.970703 0.500000
vt 0.970703 0.500000
vt 0.970703 0.500000
vt 0.970703 0.500000
vt 0.970703 0.500000
vt 0.970703 0.500000
vt 0.970703 0.500000
vt 0.970703 0.500000
vt 0.970703 0.500000
vt 0.970703 0.500000
vt 0.970703 0.500000
vt 0.970703 0.500000
vt 0.982422 0.500000
vt 0.982422 0.500000
vt 0.982422 0.500000
vt 0.970703 0.500000
vt 0.970703 0.500000
vt 0.970703 0.500000
vt 0.982422 0.500000
vt 0.970703 0.500000
vt 0.970703 0.500000
vt 0.970703 0.500000
vt 0.970703 0.500000
vt 0.970703 0.500000
vt 0.970703 0.500000
vt 0.970703 0.500000
vt 0.970703 0.500000
vt 0.970703 0.500000
vt 0.970703 0.500000
vt 0.970703 0.500000
vt 0.982422 0.500000
vt 0.982422 0.500000
vt 0.982422 0.500000
vt 0.970703 0.500000
vt 0.970703 0.500000
vt 0.970703 0.500000
vt 0.982422 0.500000
vt 0.970703 0.500000
vt 0.970703 0.500000
vt 0.970703 0.500000
vt 0.970703 0.500000
vt 0.970703 0.500000
vt 0.970703 0.500000
vt 0.970703 0.500000
vt 0.970703 0.500000
vt 0.970703 0.500000
vt 0.970703 0.500000
vt 0.970703 0.500000
vt 0.970703 0.500000
vt 0.970703 0.500000
vt 0.970703 0.500000
vt 0.970703 0.500000
vt 0.978516 0.500000
vt 0.978516 0.500000
vt 0.978516 0.500000
vt 0.970703 0.500000
vt 0.978516 0.500000
vt 0.970703 0.500000
vt 0.970703 0.500000
vt 0.970703 0.500000
vt 0.970703 0.500000
vt 0.970703 0.500000
vt 0.970703 0.500000
vt 0.970703 0.500000
vt 0.970703 0.500000
vt 0.970703 0.500000
vt 0.970703 0.500000
vt 0.970703 0.500000
vt 0.970703 0.500000
vt 0.970703 0.500000
vt 0.970703 0.500000
vt 0.970703 0.500000
vt 0.970703 0.500000
vt 0.970703 0.500000
vt 0.970703 0.500000
vt 0.970703 0.500000
vt 0.970703 0.500000
vt 0.970703 0.500000
vt 0.970703 0.500000
vt 0.970703 0.500000
vt 0.970703 0.500000
vt 0.970703 0.500000
vt 0.970703 0.500000
vt 0.978516 0.500000
vt 0.978516 0.500000
vt 0.978516 0.500000
vt 0.970703 0.500000
vt 0.970703 0.500000
vt 0.970703 0.500000
vt 0.978516 0.500000
vt 0.970703 0.500000
vt 0.970703 0.500000
vt 0.970703 0.500000
vt 0.970703 0.500000
vt 0.974609 0.500000
vt 0.974609 0.500000
vt 0.974609 0.500000
vt 0.970703 0.500000
vt 0.970703 0.500000
vt 0.974609 0.500000
vt 0.970703 0.500000
vt 0.974609 0.500000
vt 0.974609 0.500000
vt 0.974609 0.500000
vt 0.970703 0.500000
vt 0.974609 0.500000
vt 0.974609 0.500000
vt 0.970703 0.500000
vt 0.974609 0.500000
vt 0.970703 0.500000
vt 0.970703 0.500000
vt 0.970703 0.500000
vt 0.974609 0.500000
vt 0.970703 0.500000
vt 0.970703 0.500000
vt 0.970703 0.500000
vt 0.974609 0.500000
vt 0.970703 0.500000
vt 0.970703 0.500000
vt 0.970703 0.500000
vt 0.974609 0.500000
vt 0.974609 0.500000
vt 0.974609 0.500000
vt 0.970703 0.500000
vt 0.970703 0.500000
vt 0.974609 0.500000
vt 0.970703 0.500000
vt 0.978516 0.500000
vt 0.978516 0.500000
vt 0.978516 0.500000
vt 0.970703 0.500000
vt 0.970703 0.500000
vt 0.978516 0.500000
vt 0.970703 0.500000
vt 0.970703 0.500000
vt 0.970703 0.500000
vt 0.970703 0.500000
vt 0.970703 0.500000
vt 0.982422 0.500000
vt 0.982422 0.500000
vt 0.982422 0.500000
vt 0.970703 0.500000
vt 0.982422 0.500000
vt 0.970703 0.500000
vt 0.982422 0.500000
vt 0.982422 0.500000
vt 0.982422 0.500000
vt 0.970703 0.500000
vt 0.970703 0.500000
vt 0.970703 0.500000
vt 0.982422 0.500000
vt 0.970703 0.500000
vt 0.970703 0.500000
vt 0.970703 0.500000
vt 0.970703 0.500000
vt 0.970703 0.500000
vt 0.970703 0.500000
vt 0.970703 0.500000
vt 0.970703 0.500000
vt 0.970703 0.500000
vt 0.970703 0.500000
vt 0.970703 0.500000
vt 0.970703 0.500000
vt 0.970703 0.500000
vt 0.970703 0.500000
vt 0.970703 0.500000
vt 0.970703 0.500000
vt 0.970703 0.500000
vt 0.970703 0.500000
vt 0.970703 0.500000
vt 0.970703 0.500000
vt 0.970703 0.500000
vt 0.970703 0.500000
vt 0.970703 0.500000
vt 0.970703 0.500000
vt 0.970703 0.500000
vt 0.970703 0.500000
vt 0.970703 0.500000
vt 0.970703 0.500000
vt 0.970703 0.500000
vt 0.970703 0.500000
vt 0.970703 0.500000
vt 0.970703 0.500000
vt 0.970703 0.500000
vt 0.970703 0.500000
vt 0.970703 0.500000
vt 0.970703 0.500000
vt 0.970703 0.500000
vt 0.970703 0.500000
vt 0.970703 0.500000
vt 0.970703 0.500000
vt 0.970703 0.500000
vt 0.970703 0.500000
vt 0.970703 0.500000
vt 0.970703 0.500000
vt 0.970703 0.500000
vt 0.970703 0.500000
vt 0.970703 0.500000
vt 0.970703 0.500000
vt 0.970703 0.500000
vt 0.970703 0.500000
vt 0.970703 0.500000
vt 0.970703 0.500000
vt 0.970703 0.500000
vt 0.970703 0.500000
vt 0.970703 0.500000
vt 0.970703 0.500000
vt 0.970703 0.500000
vt 0.970703 0.500000
vt 0.970703 0.500000
vt 0.970703 0.500000
vt 0.970703 0.500000
vt 0.970703 0.500000
vt 0.970703 0.500000
vt 0.970703 0.500000
vt 0.970703 0.500000
vt 0.970703 0.500000
vt 0.970703 0.500000
vt 0.970703 0.500000
vt 0.970703 0.500000
vt 0.970703 0.500000
vt 0.970703 0.500000
vt 0.970703 0.500000
vt 0.970703 0.500000
vt 0.970703 0.500000
vt 0.970703 0.500000
vt 0.970703 0.500000
vt 0.970703 0.500000
vt 0.970703 0.500000
vt 0.970703 0.500000
vt 0.970703 0.500000
vt 0.970703 0.500000
vt 0.970703 0.500000
vt 0.970703 0.500000
vt 0.970703 0.500000
vt 0.970703 0.500000
vt 0.970703 0.500000
vt 0.970703 0.500000
vt 0.970703 0.500000
vt 0.970703 0.500000
vt 0.970703 0.500000
vt 0.970703 0.500000
vt 0.970703 0.500000
vt 0.970703 0.500000
vt 0.970703 0.500000
vt 0.970703 0.500000
vt 0.970703 0.500000
vt 0.970703 0.500000
vt 0.970703 0.500000
vt 0.970703 0.500000
vt 0.970703 0.500000
vt 0.970703 0.500000
vt 0.970703 0.500000
vt 0.970703 0.500000
vt 0.970703 0.500000
vt 0.970703 0.500000
vt 0.970703 0.500000
vt 0.970703 0.500000
vt 0.970703 0.500000
vt 0.970703 0.500000
vt 0.970703 0.500000
vt 0.970703 0.500000
vn -1.0000 0.0000 0.0000
vn 1.0000 0.0000 0.0000
vn 0.0000 0.0000 1.0000
vn 0.0000 0.0000 -1.0000
vn 0.0000 -1.0000 -0.0000
vn 0.0000 1.0000 0.0000
usemtl palette
s 1
f 1/1/1 2/2/1 3/3/1
f 4/4/1 2/2/1 1/1/1
f 5/5/1 2/2/1 4/4/1
f 6/6/1 2/2/1 5/5/1
f 7/7/1 8/8/1 9/9/1
f 10/10/1 8/8/1 7/7/1
f 11/11/1 8/8/1 10/10/1
f 12/12/1 13/13/1 11/11/1
f 12/12/1 11/11/1 10/10/1
f 14/14/1 13/13/1 12/12/1
f 15/15/1 14/16/1 12/17/1
f 16/18/1 13/13/1 14/14/1
f 16/19/1 14/16/1 15/15/1
f 17/20/1 13/13/1 16/18/1
f 18/21/1 16/18/1 15/22/1
f 18/21/1 19/23/1 17/20/1
f 18/21/1 17/20/1 16/18/1
f 20/24/1 19/23/1 18/21/1
f 21/25/1 19/23/1 20/24/1
f 22/26/1 19/23/1 21/25/1
f 23/27/1 21/25/1 20/24/1
f 24/28/1 21/25/1 23/27/1
f 25/29/1 26/30/1 27/31/1
f 28/32/1 26/30/1 25/29/1
f 29/33/1 30/34/1 31/35/1
f 32/36/1 33/37/1 30/38/1
f 32/39/1 30/34/1 29/33/1
f 34/40/1 32/36/1 29/41/1
f 35/42/1 33/37/1 32/36/1
f 35/42/1 32/36/1 34/40/1
f 36/43/1 37/44/1 38/45/1
f 39/46/1 37/44/1 36/43/1
f 40/47/2 41/48/2 42/49/2
f 42/49/2 41/48/2 43/50/2
f 44/51/2 45/52/2 46/53/2
f 45/54/2 47/55/2 48/56/2
f 46/53/2 45/52/2 48/57/2
f 46/58/2 48/56/2 49/59/2
f 48/56/2 47/55/2 50/60/2
f 49/59/2 48/56/2 50/60/2
f 51/61/2 52/62/2 53/63/2
f 53/63/2 52/62/2 54/64/2
f 55/65/2 56/66/2 57/67/2
f 57/67/2 56/66/2 58/68/2
f 58/68/2 56/66/2 59/69/2
f 59/69/2 60/70/2 61/71/2
f 58/68/2 59/69/2 61/71/2
f 61/71/2 60/70/2 62/72/2
f 61/73/2 62/74/2 63/75/2
f 62/72/2 60/70/2 64/76/2
f 63/75/2 62/74/2 64/77/2
f 64/76/2 60/70/2 65/78/2
f 63/79/2 64/76/2 66/80/2
f 65/78/2 67/81/2 66/80/2
f 64/76/2 65/78/2 66/80/2
f 66/80/2 67/81/2 68/82/2
f 68/82/2 67/81/2 69/83/2
f 69/83/2 67/81/2 70/84/2
f 68/82/2 69/83/2 71/85/2
f 71/85/2 69/83/2 72/86/2
f 73/87/2 74/88/2 75/89/2
f 75/89/2 74/88/2 76/90/2
f 76/90/2 74/88/2 77/91/2
f 77/91/2 74/88/2 78/92/2
f 79/93/3 80/94/3 81/95/3
f 82/96/3 80/94/3 79/93/3
f 83/97/3 84/98/3 85/99/3
f 86/100/3 84/98/3 83/97/3
f 87/101/3 88/102/3 89/103/3
f 87/104/3 90/105/3 88/106/3
f 91/107/3 92/108/3 90/109/3
f 91/110/3 90/105/3 87/104/3
f 93/111/3 92/108/3 91/107/3
f 94/112/3 87/101/3 89/103/3
f 94/112/3 91/107/3 87/101/3
f 95/113/3 91/107/3 94/112/3
f 96/114/3 91/107/3 95/113/3
f 97/115/3 93/116/3 91/117/3
f 97/118/3 91/107/3 96/114/3
f 98/119/3 92/108/3 93/111/3
f 98/120/3 93/116/3 97/115/3
f 99/121/3 97/118/3 96/114/3
f 99/122/3 96/123/3 95/124/3
f 99/121/3 98/119/3 97/118/3
f 100/125/3 98/119/3 99/121/3
f 101/126/3 99/122/3 95/124/3
f 101/126/3 100/127/3 99/122/3
f 102/128/3 98/119/3 100/125/3
f 102/129/3 100/127/3 101/126/3
f 103/130/3 95/113/3 94/112/3
f 103/130/3 94/112/3 104/131/3
f 105/132/3 95/113/3 103/130/3
f 106/133/3 101/126/3 95/124/3
f 106/134/3 95/113/3 105/132/3
f 107/135/3 102/128/3 101/136/3
f 107/137/3 101/126/3 106/133/3
f 108/138/3 98/119/3 102/128/3
f 108/138/3 102/128/3 107/135/3
f 109/139/3 92/108/3 98/119/3
f 109/139/3 98/119/3 108/138/3
f 110/140/3 108/138/3 107/135/3
f 110/140/3 107/135/3 106/134/3
f 110/140/3 106/134/3 105/132/3
f 111/141/3 109/142/3 108/143/3
f 111/144/3 108/138/3 110/140/3
f 112/145/3 92/108/3 109/139/3
f 112/146/3 109/142/3 111/141/3
f 113/147/3 110/140/3 105/132/3
f 114/148/3 111/149/3 110/150/3
f 114/151/3 110/140/3 113/147/3
f 115/152/3 112/145/3 111/144/3
f 115/153/3 111/149/3 114/148/3
f 116/154/3 92/108/3 112/145/3
f 116/154/3 112/145/3 115/152/3
f 117/155/3 118/156/3 119/157/3
f 120/158/3 118/156/3 117/155/3
f 121/159/3 120/160/3 117/161/3
f 122/162/3 118/156/3 120/158/3
f 122/163/3 120/160/3 121/159/3
f 123/164/3 118/156/3 122/162/3
f 124/165/3 125/166/3 126/167/3
f 127/168/3 128/169/3 125/170/3
f 127/171/3 125/166/3 124/165/3
f 129/172/3 127/168/3 124/173/3
f 130/174/3 128/169/3 127/168/3
f 130/174/3 127/168/3 129/172/3
f 131/175/3 132/176/3 133/177/3
f 134/178/3 132/176/3 131/175/3
f 135/179/3 136/180/3 137/181/3
f 138/182/3 136/180/3 135/179/3
f 139/183/3 140/184/3 141/185/3
f 142/186/3 140/184/3 139/183/3
f 143/187/3 144/188/3 145/189/3
f 146/190/3 144/188/3 143/187/3
f 147/191/4 148/192/4 149/193/4
f 149/193/4 148/192/4 150/194/4
f 151/195/4 152/196/4 153/197/4
f 153/197/4 152/196/4 154/198/4
f 155/199/4 156/200/4 157/201/4
f 155/199/4 157/201/4 158/202/4
f 157/201/4 159/203/4 158/202/4
f 158/202/4 159/203/4 160/204/4
f 160/204/4 159/203/4 161/205/4
f 161/205/4 159/203/4 162/206/4
f 163/207/4 161/205/4 162/206/4
f 162/206/4 159/203/4 164/208/4
f 163/207/4 162/206/4 165/209/4
f 165/209/4 162/206/4 166/210/4
f 167/211/4 168/212/4 169/213/4
f 169/213/4 168/212/4 170/214/4
f 171/215/5 172/216/5 173/217/5
f 174/218/5 175/219/5 176/220/5
f 177/221/5 171/215/5 173/217/5
f 177/221/5 174/218/5 171/215/5
f 178/222/5 175/219/5 174/218/5
f 178/222/5 174/218/5 177/221/5
f 179/223/5 177/221/5 180/224/5
f 179/223/5 181/225/5 178/222/5
f 179/223/5 178/222/5 177/221/5
f 182/226/5 181/225/5 179/223/5
f 183/227/5 181/225/5 182/226/5
f 184/228/5 181/225/5 183/227/5
f 185/229/5 183/227/5 182/226/5
f 186/230/5 183/227/5 185/229/5
f 187/231/6 188/232/6 189/233/6
f 189/233/6 188/232/6 190/234/6
f 191/235/6 192/236/6 193/237/6
f 193/237/6 192/236/6 194/238/6
f 195/239/6 196/240/6 197/241/6
f 197/241/6 196/240/6 198/242/6
f 199/243/6 200/244/6 201/245/6
f 201/245/6 200/244/6 202/246/6
f 203/247/6 204/248/6 205/249/6
f 205/249/6 204/248/6 206/250/6
f 207/251/6 208/252/6 209/253/6
f 209/253/6 208/252/6 210/254/6
f 211/255/6 212/256/6 213/257/6
f 213/257/6 212/256/6 214/258/6
f 215/259/6 216/260/6 217/261/6
f 217/261/6 216/260/6 218/262/6
f 218/262/6 216/260/6 219/263/6
f 219/263/6 216/260/6 220/264/6
f 220/264/6 216/260/6 221/265/6
f 221/265/6 216/260/6 222/266/6
f 219/263/6 220/264/6 223/267/6
f 223/267/6 220/264/6 224/268/6
f 223/267/6 224/268/6 225/269/6
f 225/269/6 224/268/6 226/270/6
f 225/269/6 226/270/6 227/271/6
f 226/270/6 228/272/6 227/271/6
f 229/273/6 225/269/6 227/271/6
f 227/271/6 228/272/6 230/274/6
f 231/275/6 232/276/6 233/277/6
f 233/277/6 232/276/6 234/278/6
f 235/279/6 236/280/6 237/281/6
f 237/281/6 236/280/6 238/282/6
