# Created by Kenney (www.kenney.nl)

mtllib tile.mtl

g tile

v 0.5 0 0.5
v 0.5 0 -0.5
v -0.5 0 0.5
v -0.5 0 -0.5
v 0.5 0.1 -0.5
v 0.5 0.1 0.5
v -0.5 0.1 0.5
v -0.5 0.1 -0.5
v 0.5 0.2 -0.5
v 0.5 0.2 0.5
v -0.5 0.2 -0.5
v -0.5 0.2 0.5

vn 0 -1 0
vn 1 0 0
vn 0 0 1
vn -1 0 0
vn 0 0 -1
vn 0 1 0

vt 19.68504 19.68504
vt 19.68504 -19.68504
vt -19.68504 19.68504
vt -19.68504 -19.68504
vt 19.68504 3.937008
vt 19.68504 0
vt -19.68504 3.937008
vt -19.68504 0
vt 19.68504 7.874016
vt -19.68504 7.874016

usemtl dirt

f 3/3/1 2/2/1 1/1/1
f 2/2/1 3/3/1 4/4/1
f 6/7/2 2/6/2 5/5/2
f 2/6/2 6/7/2 1/8/2
f 6/5/3 3/8/3 1/6/3
f 3/8/3 6/5/3 7/7/3
f 3/6/4 8/7/4 4/8/4
f 8/7/4 3/6/4 7/5/4
f 8/5/5 2/8/5 4/6/5
f 2/8/5 8/5/5 5/7/5

usemtl foliage

f 11/2/6 10/3/6 9/4/6
f 10/3/6 11/2/6 12/1/6
f 10/10/2 5/5/2 9/9/2
f 5/5/2 10/10/2 6/7/2
f 11/9/5 5/7/5 8/5/5
f 5/7/5 11/9/5 9/10/5
f 7/5/4 11/10/4 8/7/4
f 11/10/4 7/5/4 12/9/4
f 10/9/3 7/7/3 6/5/3
f 7/7/3 10/9/3 12/10/3

